<svg id="Слой_1" xmlns="http://www.w3.org/2000/svg" width="716.759" height="245.237" viewBox="77.717 21.054 716.759 245.237"><g fill="#FFF" stroke="#000" stroke-width=".25" stroke-miterlimit="10"><path d="M78.953 24.508l73.215 1.11 11.094 3.327 9.983 5.546 6.656 7.767 3.33 11.093c.92 3.883 1.663 8.32 2.217 13.312l-1.11 43.264c-1.018 3.792-3.974 6.01-8.874 6.656H131.09l-12.202 2.218h-29.95l-1.11 27.733c-1.018 3.515-3.603 5.36-7.765 5.546l-1.11-115.37-1.107-8.876 1.107-3.326zm2.22 158.635l9.983 1.108-1.11 31.063 1.11 1.108-1.11 3.33h-8.874v-32.17l-1.11-3.33 1.11-1.107zm37.716-59.905h55.466l-3.328 6.656c-2.496 2.588-5.456 5.178-8.875 7.765l-9.984 5.546-15.53 1.11-7.767 7.764c2.31 1.665 4.528 3.883 6.656 6.656-3.052 2.772-7.12 4.252-12.204 4.437h-16.64c-3.976-.09-8.042-.832-12.203-2.22v-32.17c3.418-1.57 7.118-2.68 11.094-3.327 4.437-.09 8.875-.83 13.312-2.218zM96.702 169.83h41.045v53.248l-2.22 3.327H96.704v-2.218h-1.11l1.11-6.656v-43.263l-1.11-3.328 1.11-1.11zm32.17-110.933v44.373c3.975-.277 8.043-1.387 12.203-3.328l2.22-12.202V73.32c-.556-3.975-1.665-8.044-3.33-12.204l-11.093-2.22zM191.688 127.675h49.92c.184 6.75 1.293 14.144 3.327 22.187l2.22 7.766-1.11 14.42h-47.7v1.11l-1.11-1.11-1.11-16.64-4.436-2.218v-25.515zM238.28 21.18l32.17 1.11 23.296 9.983 7.767 8.875 5.546 11.094c1.016 4.346 1.753 9.15 2.218 14.42l2.218 72.107H270.45l-5.546 1.108 1.11 7.765h43.263l-2.22 37.717-3.327 13.313-6.656 9.984-8.875 7.765-9.985 5.547c-.74 4.437-3.327 7.395-7.766 8.874-3.144-1.574-5.734-4.16-7.766-7.766h-16.64l-13.313-2.22-11.093-5.546L205 198.672l-4.437-12.203-1.11-6.655 7.767-1.11h42.153v7.765c3.418 1.387 7.118 2.13 11.094 2.22 1.018-3.695 2.864-7.024 5.547-9.984h8.875l1.107-5.546-14.42-1.11-2.22-114.26c-2.865-1.476-6.193-2.218-9.983-2.218-1.02 4.347-1.756 9.152-2.218 14.422v49.92c-3.975 1.572-8.413 2.682-13.312 3.327h-33.28c-2.772-3.05-4.25-7.117-4.437-12.202v-33.28l4.438-28.842 6.656-9.984 8.876-7.766 22.184-9.986zM318.983 127.675h23.296l7.765 1.11-1.11 9.983 1.11 3.328-31.062 1.11v-15.53zm0 19.968h26.624l4.438 2.22c-.74 5.27-1.11 11.186-1.11 17.75v48.81h1.11l-1.11 1.107c-7.487 1.388-15.622 2.127-24.404 2.22l-5.546-1.108v-71zm5.547-123.135l65.45 1.11c5.546 0 12.202.74 19.968 2.218l13.313 8.875 7.766 14.422c1.2 5.64 1.94 12.295 2.22 19.967v21.077c-1.665 4.9-3.884 10.077-6.656 15.53l-14.42 7.765 14.42 7.766 6.655 15.53c-5.27 2.773-11.186 4.253-17.75 4.438H393.31c-4.993-1.85-8.322-5.915-9.985-12.203l-8.875-2.22c-.555 2.498-.925 5.458-1.108 8.876l1.108 37.716-4.438 1.108c-2.128 5.36-3.237 11.647-3.328 18.858v14.42l1.11 3.33-1.11 1.108-13.312-1.11-1.108-3.327 1.108-1.107-1.108-59.904 4.438-1.11c2.403-.09 4.992-.83 7.766-2.218l-8.874-2.218c-1.388-5.36-2.128-11.278-2.22-17.75-5.27-2.772-11.186-4.25-17.75-4.437h-12.2V27.835l1.106-3.328zm49.92 34.39l-1.108 26.623 1.108 13.313 8.875-2.22c2.125-7.486 3.235-15.62 3.328-24.404-.833-6.657-4.902-11.094-12.203-13.313zm9.984 119.806h45.48l1.11 38.827 1.11 2.22h-1.11l-9.984 2.22h-33.28c-2.127-5.916-3.236-12.57-3.327-19.97v-23.296zm6.657-28.843h46.592v24.407h1.108l-1.108 1.108c-5.27.74-11.187 1.108-17.75 1.108h-28.84V149.86zM446.972 23.815h106.495l2.22 33.28c-3.328 3.605-7.767 5.456-13.313 5.546l-15.53 1.11v70.997c-4.9 1.574-10.075 2.683-15.53 3.33l-2.22-15.532v-17.75c0-2.496-.74-5.082-2.22-7.765l-1.107 58.794h-32.17V99.25l2.218-15.532v-17.75c-4.346-1.57-9.15-2.68-14.42-3.327-4.81-.184-9.616-1.293-14.422-3.327V23.815zm24.406 151.977h45.48l4.44 1.11c-2.313 3.328-6.013 5.18-11.095 5.546h-17.75l-3.327 1.108v33.28h-17.75v-41.044zm37.716-35.498h17.75v37.717c-1.39-2.402-3.238-4.62-5.547-6.654h-43.265c-1.108-2.588-1.85-5.547-2.22-8.875h31.062l2.22-1.108v-21.078zm-17.75 51.03h16.64c3.974.092 8.045.83 12.204 2.218v27.733l1.11 2.22-1.11 1.106-15.53 1.11c-4.438-.188-9.244-.924-14.422-2.218l1.11-32.17zm33.28-4.44c2.96 4.44 4.438 9.985 4.438 16.642v15.53l-2.22 2.22c-1.388-4.9-2.128-10.446-2.22-16.64v-13.313l-1.108-3.327 1.11-1.11zM561.37 209.627l6.657 1.107-1.108 23.297h1.107l-2.22 3.33h-7.764l3.328-27.733zm7.767-33.28l3.327 16.64-2.22 14.422h-4.437l3.33-31.062zm0-19.968l3.327 11.093-2.22 4.438-1.107-15.53zm2.217 53.247l44.374 1.107-2.22 8.875h-42.154l-1.107-7.767 1.107-2.216zm18.86-185.258h69.888l2.22 5.546 8.873 65.45c.923 3.883 1.665 8.32 2.22 13.312l4.438 26.624c.37 3.515 1.48 7.21 3.33 11.093 1.662 3.238 3.14 6.934 4.436 11.094l1.108 13.31c.923 3.885 1.664 8.32 2.22 13.314l4.438 26.623c-3.977 1.108-8.412 1.852-13.313 2.22h-15.528c-2.312-2.31-3.794-5.27-4.438-8.876V158.6c-.093-3.79-1.2-7.488-3.327-11.094l-1.11 11.094v54.355l1.11 2.22-1.11 1.108-14.42 1.11-4.438-33.28h-8.874c-3.237 1.296-5.824 3.515-7.766 6.654v15.53l-44.372 1.11v-43.264c1.016-3.514 3.604-5.36 7.765-5.547h61.013c2.96-.186 5.547-1.664 7.767-4.438H576.91l-2.22-21.077 1.11-2.218L590.215 24.37zm36.607 57.685l-7.765 62.122 7.766 1.11 6.657-1.11-4.438-45.482c-.277-5.36-1.02-10.907-2.22-16.64zM684.368 114.225h38.688l17.75 2.22v29.952l9.982 2.22-1.108 12.202 1.108 6.655h19.274c2.31 3.79 6.008 6.748 11.093 8.875-5.27 1.48-11.186 2.217-17.75 2.217H716.4c-5.27 0-10.814-.738-16.64-2.217v-18.86c-5.733-.922-8.69-4.622-8.874-11.094V126.43c-2.772-3.238-4.944-7.304-6.516-12.205zm9.846-89.856h33.278c4.9 0 10.074.74 15.53 2.218v76.544h1.11l-1.11 1.11-48.81 1.108-1.11-65.45 1.112-15.53zm5.546 163.07h81.396v28.843l-1.108 4.438-15.53 1.11c-.37-2.496-4.208-4.715-11.51-6.656h-47.7l-4.44-1.11-1.108-26.625z"/></g><g fill="#FFF" stroke="#000" stroke-width=".25" stroke-miterlimit="10"><path d="M450.188 248.14c.857-2.24 2.09-4.18 3.695-5.82 1.604-1.643 3.544-2.93 5.82-3.864 2.276-.934 4.797-1.398 7.56-1.398h2.463c1.045 0 2.016.11 2.91.336.896.224 1.68.598 2.353 1.12.67.52 1.007 1.306 1.007 2.352 0 .97-.074 1.83-.225 2.573-.15.747-.486 1.605-1.008 2.575-1.866 0-3.603.075-5.206.225-1.606.15-2.986.486-4.144 1.008-1.157.523-2.07 1.343-2.742 2.463-.672 1.12-1.01 2.54-1.01 4.256.074 1.046.3 1.698.674 1.96.373.262.933.13 1.68-.393.745-.896 1.193-1.567 1.344-2.016.148-.45.297-.82.447-1.12.148-.298.225-.634.225-1.007l9.404-.45c.148 2.616-.02 4.815-.504 6.607-.486 1.79-1.175 3.304-2.07 4.534-.897 1.23-2.147 2.185-3.75 2.856-1.606.672-3.64 1.008-6.104 1.008-1.72 0-3.415-.188-5.096-.56-1.68-.374-3.19-.97-4.533-1.793-1.346-.818-2.43-1.863-3.248-3.134-.822-1.27-1.23-2.836-1.23-4.703-.002-2.835.427-5.374 1.286-7.614zm3.638 11.476c.672.858 1.493 1.586 2.464 2.183.97.6 2.127 1.046 3.472 1.345 1.344.297 2.61.446 3.807.446.372 0 .987-.072 1.847-.224.857-.147 1.96-.597 3.304-1.343 1.046-.896 1.866-1.865 2.465-2.912.596-1.042 1.044-2.31 1.344-3.806 0-.597.035-1.1.11-1.512.073-.41-.71-.54-2.353-.393l-2.91.224c-.15 1.12-.41 2.055-.783 2.8-.375.746-.784 1.287-1.23 1.622-.45.337-1.272.58-2.465.73-1.195 0-2.055-.28-2.576-.84-.522-.56-1.23-1.66-2.127-3.304-.224-2.39.43-4.516 1.96-6.382 1.528-1.865 3.228-3.062 5.094-3.584 1.865-.52 4.292-.856 7.28-1.007l.67-1.905c-.374-1.12-1.102-1.752-2.184-1.902-1.082-.148-2.07-.225-2.967-.225-2.392 0-4.535.47-6.44 1.398-1.902.936-3.657 2.035-5.262 3.305-1.605 1.272-2.78 2.912-3.527 4.927-.745 2.016-.933 4.442-.56 7.278.373 1.195.895 2.224 1.566 3.08zM483.833 239.406c.3-.745.784-1.27 1.456-1.568.672-.297 1.416-.503 2.238-.615.82-.113 1.492-.168 2.016-.168h2.574c1.643 0 3.284.02 4.928.055 1.642.04 3.21.244 4.703.617 1.49.375 2.646 1.157 3.47 2.352.82 1.192 1.23 2.798 1.23 4.813 0 1.12-.15 2.11-.446 2.967-.3.858-.747 1.734-1.345 2.632-.6.896-1.345 1.68-2.24 2.352-.895.67-1.12 1.605-.67 2.8 0 .598.128 1.14.39 1.623.262.485.542.99.84 1.512.298.52.578 1.045.84 1.565.262.523.394 1.12.394 1.79 0 .974-.075 1.7-.225 2.185-.15.486-.412.84-.785 1.064-.374.225-.896.335-1.566.335h-2.24c-.97 0-1.81.036-2.52.11-.71.073-1.362-.204-1.96-.84-.6-.634-1.045-1.286-1.344-1.958-.3-.674-.896-1.232-1.79-1.68-.448-.226-.784-.41-1.01-.56-.223-.15-.71-.226-1.455-.226-.445.375-.838 1.23-1.175 2.576-.336 1.342-.615 2.164-.84 2.463H476.67l7.163-26.2zm19.26 3.807c0-.52-.112-.933-.336-1.23-.226-.297-.523-.635-.896-1.008s-.746-.71-1.118-1.01c-5.15-.447-9.257-.447-12.315 0-.374 0-.804.58-1.287 1.737-.486 1.157-.99 2.594-1.512 4.312-.523 1.717-1.288 4.403-2.297 8.062-1.006 3.657-1.66 6.01-1.958 7.053-.3 1.046-.522 1.866-.672 2.463l4.367-.11c0-.226.073-.616.224-1.177.15-.56.338-1.138.562-1.736.224-.596.466-1.155.728-1.68.262-.52.505-.855.73-1.007.073-.073.372-.15.895-.225.52-.073.934-.11 1.23-.11 1.94 0 3.49.502 4.647 1.51 1.156 1.008 2.258 2.483 3.304 4.424h3.807c0-.896-.206-1.697-.615-2.406-.41-.71-.858-1.4-1.344-2.072-.486-.672-.934-1.36-1.344-2.07-.41-.71-.616-1.513-.616-2.408 0-.97.448-1.695 1.344-2.184.896-.484 1.68-1.212 2.353-2.183.673-.97 1.193-1.866 1.567-2.69.373-.82.562-1.827.562-3.022-.007-.302-.007-.712-.007-1.235zm-5.264.784c.597.82.895 1.83.895 3.022-.523 1.046-1.083 1.81-1.68 2.294-.6.486-1.27.916-2.016 1.287-.748.376-1.663.6-2.744.673-1.083.076-2.07.112-2.968.112 0-.82.093-1.735.28-2.743.186-1.008.483-1.94.896-2.8.41-.856.952-1.585 1.623-2.183.673-.6 1.53-.897 2.575-.897 1.495.003 2.538.414 3.137 1.234zm-5.15 2.183c-.375.71-.6 1.514-.673 2.407.298.15.483.226.56.226.97 0 1.81-.226 2.52-.674.71-.446.913-1.456.616-3.022-1.644-.002-2.65.355-3.024 1.062zM523.805 238.454c.896-.187 1.81-.315 2.742-.392.933-.073 1.792-.073 2.575 0 .783.074 1.324.11 1.623.11.52 0 1.36.02 2.52.058 1.157.037 1.81.095 1.96.168l1.12 1.12v24.968c0 .15-.15.373-.448.672-.3.3-.52.447-.672.447-.075 0-.58.04-1.512.11-.935.075-1.623.113-2.07.113-1.27 0-2.37-.075-3.304-.224-.937-.148-1.53-.746-1.793-1.793-.263-1.042-.653-1.827-1.176-2.35-.52-.52-1.306-.784-2.35-.784-1.72 0-3.024.56-3.92 1.68-.896 1.12-2.24 2.203-4.03 3.248h-9.293c0-1.94.24-3.62.73-5.04.482-1.417 1.023-3.17 1.623-5.262.596-2.09 1.154-3.88 1.68-5.374.52-1.492 1.23-3.097 2.126-4.814.896-1.717 1.865-2.91 2.91-3.582 1.046-.672 2.763-1.456 5.15-2.352 1.643-.295 2.913-.537 3.81-.726zm-2.688 3.75c-1.94.673-3.358 1.345-4.255 2.017-.896.673-1.643 1.794-2.24 3.36-.598 1.566-1.474 4.105-2.63 7.613-1.157 3.51-1.998 6.232-2.52 8.173.147 0 .43.04.84.112.41.074 1.697.04 3.862-.112.597-.298 1.156-.857 1.68-1.68.52-.82 1.68-1.902 3.47-3.247.747-.598 1.998-.897 3.752-.897s3.08.15 3.977.448c.818 1.12 1.305 1.792 1.455 2.016.373.523.634 1.177.783 1.96.15.783.71 1.102 1.682.95.744 0 1.268-.036 1.565-.11s.448-.336.448-.783c0-.448.074-.896.225-1.344l-.225-16.907-.448-2.353h-2.912c-3.73-.15-6.567.114-8.508.785zm7.166 11.982c-3.285-.147-6.346-.147-9.182 0 .148-1.492.505-2.688 1.063-3.582.562-.896 1.178-1.717 1.85-2.465.67-.745 1.343-1.305 2.015-1.68.672-.372 2.09-.633 4.255-.784v8.51zm-5.598-1.79h3.583v-4.257c-1.642.822-2.837 2.24-3.583 4.255zM549.22 237.727c.82-.072 1.828-.185 3.022-.334h1.79c.747 0 2.02.074 3.81.224s3.47.577 5.038 1.286c1.566.712 2.892 1.605 3.975 2.688 1.08 1.083 1.624 2.52 1.624 4.313 0 2.537-.47 4.63-1.4 6.27-.935 1.643-2.184 2.95-3.75 3.92-1.567.97-3.38 1.68-5.432 2.126-2.054.447-4.162.71-6.326.783-.747.672-1.27 1.31-1.566 1.903-.3.6-.486 1.12-.56 1.567-.076.447-.225.914-.45 1.4-.223.484-.652.895-1.285 1.23-.635.334-1.735.598-3.304.782-1.567.185-3.845.28-6.83.28 0-1.492.298-3.62.896-6.382.597-2.76 1.38-5.616 2.352-8.566.97-2.946 2.107-5.67 3.415-8.173 1.304-2.5 2.63-4.27 3.975-5.318h1.006zm-1.79 4.982c-1.12 1.903-2.203 4.16-3.248 6.772-1.047 2.613-1.83 5.263-2.352 7.95-.522 2.687-.783 4.776-.783 6.27 1.642 0 2.91-.094 3.807-.28s1.492-.856 1.79-2.016c.3-1.156.71-2.127 1.233-2.91.52-.784 1.23-1.698 2.127-2.744 1.79.15 3.545.095 5.262-.168 1.717-.26 3.304-.672 4.76-1.23 1.455-.56 2.668-1.417 3.64-2.575.97-1.157 1.454-2.855 1.454-5.097-.224-1.716-.672-2.947-1.344-3.694-.672-.745-1.494-1.344-2.463-1.792-.97-.447-2.166-.783-3.583-1.01-1.42-.223-2.838-.333-4.255-.333-2.912 0-4.925.952-6.046 2.854zm5.038 3.135c.598-1.01 1.604-1.512 3.022-1.512 1.27 0 2.07.263 2.407.783.336.522.504 1.42.504 2.688 0 1.27-.298 2.352-.895 3.246-.598.895-1.643 1.344-3.135 1.344H551.348s-.672-.373-.672-1.12l.225-2.238c.448-1.12.97-2.182 1.568-3.19zm2.686 4.31c.745-.597 1.044-1.792.896-3.583-1.645 0-2.688 1.27-3.137 3.807l2.24-.225zM567.526 261.016c-.038-.52.018-1.306.168-2.352l6.046-19.146c1.193-1.416 2.164-2.125 2.91-2.125h3.136c2.537.074 3.993.187 4.367.334.372.15.52.6.447 1.344-.075.75-.188 1.607-.336 2.577-.15.972-.224 2.238-.224 3.807.597.6 1.753.747 3.47.447.598-2.015 1.157-3.768 1.68-5.26.522-1.493 1.214-2.41 2.072-2.745.856-.334 2.183-.502 3.976-.502 2.088 0 3.396.055 3.918.168.52.11.896 1.027 1.12 2.743 0 .15-.02.522-.056 1.12-.04.6-.057.972-.057 1.12-.225.746-.542 1.98-.952 3.693-.41 1.72-.877 3.565-1.398 5.543-.522 1.978-1.14 3.88-1.848 5.71-.71 1.828-1.175 3.078-1.4 3.75-.074.225-.24.578-.503 1.063s-.54.99-.838 1.51c-.3.524-.636.973-1.01 1.346-.373.374-.71.56-1.006.56H584.6c-1.194-.3-1.94-.82-2.24-1.567v-1.176c0-.484.075-1.102.226-1.85.148-1.342.186-2.273.11-2.798-.072-.522-.335-.934-.783-1.232h-1.007s-.653.41-1.287 1.23c-.637.822-1.29 2.017-1.96 3.584-.673 1.566-1.476 2.613-2.407 3.135-.935.523-2.334.784-4.2.784-1.492 0-2.444-.223-2.853-.67-.41-.45-.615-1.418-.615-2.912-.003-.3-.022-.71-.06-1.232zm3.64 1.567c.072.374.634.562 1.68.562 1.344-.746 2.184-1.625 2.52-2.633.336-1.008.765-1.94 1.287-2.8.52-.856 1.08-1.623 1.68-2.295.598-.672 1.567-1.08 2.91-1.23h1.568c.897 0 1.586.094 2.072.28.483.186.73.615.73 1.286l-.338 6.83c1.64.672 3.284.747 4.927.224 1.346-3.135 2.5-5.934 3.473-8.396.97-2.462 1.753-4.942 2.352-7.444.597-2.5.896-4.347.896-5.542 0-.82-.168-1.306-.504-1.456-.335-.148-.99-.224-1.96-.224-.895 0-1.565.224-2.015.672-.446.448-.895 1.382-1.343 2.8-.448 1.418-.896 2.65-1.344 3.693-.447 1.046-1.383 1.604-2.8 1.68-2.538 0-4.05-.057-4.533-.17-.486-.11-.86-.446-1.12-1.006-.264-.56-.354-1.38-.28-2.464.074-1.08.15-2.107.225-3.08.225-.97-.188-1.49-1.23-1.566-.747-.072-1.645.038-2.688.336-.447.3-1.23 2.203-2.352 5.71-1.12 3.51-2.054 6.55-2.8 9.126-.746 2.574-1.194 4.387-1.344 5.43l.335 1.677zM616.623 237.28c1.193.073 1.567.67 1.12 1.79l-1.68 6.494-7.39 20.153h-10.077c0-1.567.28-3.264.84-5.094.56-1.83 1.062-3.488 1.512-4.98.297-.972.708-2.223 1.23-3.753.522-1.53 1.024-3.004 1.513-4.423.485-1.417.934-2.65 1.344-3.694s.877-2.463 1.4-4.256c.596-1.492 1.528-2.238 2.8-2.238h7.39zm-7.222 3.917c-.186.375-1.046 2.613-2.574 6.718-1.53 4.106-2.613 7.24-3.247 9.405-.636 2.166-1.14 3.92-1.513 5.263 1.12.075 2.146.168 3.08.28.932.11 1.51-.43 1.734-1.624 2.165-5.375 4.18-10.975 6.048-16.797l.783-3.582c-2.686-.147-4.122-.036-4.31.337zM617.518 246.46c1.193-2.017 2.78-3.694 4.76-5.038 1.978-1.344 4.215-2.37 6.717-3.08 2.5-.707 5.057-1.062 7.67-1.062h2.127s1.625.095 2.407.28c.783.187 1.437.522 1.96 1.007.52.485.782 1.14.782 1.96 0 1.046-.392 1.866-1.175 2.462-.784.598-1.774 1.118-2.968 1.567-1.195.447-2.464.877-3.81 1.287-1.343.41-2.612.95-3.806 1.623-1.194.672-2.185 1.53-2.967 2.575-.784 1.046-1.177 2.463-1.177 4.254 0 .076.037.337.11.785l5.6 5.263c.073.075.13.3.17.673.034.373.055.672.055.896 0 1.567-.542 2.614-1.623 3.135-1.083.522-2.37.784-3.863.784-2.464 0-4.498-.224-6.103-.67-1.606-.45-2.91-1.157-3.92-2.128s-1.718-2.24-2.127-3.807c-.41-1.568-.615-3.473-.615-5.71.002-2.69.598-5.038 1.793-7.055zm4.087 15.283c1.752 1.157 4.123 1.735 7.11 1.735h.56c.223-.148.632-.336 1.23-.56.597-.226.933-.41 1.008-.562.073-.297.112-.484.112-.56 0-.073-.02-.168-.058-.28-.04-.11-.056-.205-.056-.28-.15-.072-.446-.26-.895-.56l-1.344-.896c-.447-.298-.895-.616-1.343-.952-.448-.336-.747-.577-.896-.73-.148-.07-.353-.223-.615-.446-.262-.225-.43-.41-.503-.56-.074-.3-.15-.913-.225-1.85-.075-.93-.112-1.547-.112-1.847 0-1.717.354-3.172 1.063-4.366.71-1.194 1.585-2.147 2.632-2.856 1.044-.708 2.184-1.305 3.415-1.79 1.23-.486 2.368-.934 3.414-1.345 1.044-.41 2.032-.746 2.967-1.01.933-.26 1.25-.912.95-1.958-2.836-.298-5.504-.224-8.004.224-2.502.448-4.87 1.362-7.11 2.743-2.24 1.38-3.79 3.134-4.646 5.262-.858 2.127-1.288 4.572-1.288 7.334.003 2.917.88 4.95 2.635 6.107zM658.104 262.08c.036-.41.056-.69.056-.84.225-.746.577-1.997 1.063-3.752.484-1.754 1.1-3.844 1.848-6.27.746-2.425 1.514-4.57 2.296-6.438.784-1.865 1.288-3.173 1.513-3.92.596-1.642 1.397-2.632 2.405-2.968 1.01-.334 2.258-.502 3.75-.502 1.045 0 1.85.242 2.408.727.562.486 1.025.896 1.4 1.232.372.333.783.688 1.23 1.06.447.375 1.12 1.644 2.016 3.808.52-1.492.876-2.557 1.062-3.19.186-.634.428-1.4.73-2.296.296-.896 1.155-1.398 2.574-1.512 1.417-.11 3.396.13 5.934.73.297 1.565.15 3.452-.447 5.653-.6 2.203-1.27 4.48-2.016 6.83-.747 2.352-1.455 4.59-2.128 6.72-.673 2.126-1.383 4.235-2.128 6.323l-1.12 1.12c-1.194.6-2.874.895-5.038.895-2.166 0-3.657-.298-4.48-.895 0-2.238-.41-5.262-1.23-9.067-.522 2.016-.99 3.546-1.398 4.59-.41 1.047-.88 2.128-1.398 3.247-.523 1.12-1.195 1.812-2.017 2.07-.82.264-2.39.394-4.7.394-.972 0-1.59-.28-1.85-.84-.262-.56-.392-1.25-.392-2.072 0-.147.017-.428.056-.84zm9.685-20.434c-.3.373-.748 1.307-1.345 2.8-.6 1.493-1.23 3.153-1.9 4.98-.675 1.83-1.272 3.603-1.793 5.318-.523 1.72-.896 3.342-1.12 4.87-.225 1.53-.336 2.707-.336 3.527 1.717 0 2.816-.167 3.303-.504.483-.335 1.044-1.716 1.68-4.143.633-2.425 1.27-4.254 1.903-5.486.633-1.23 1.324-2.07 2.07-2.52 1.94 3.286 3.136 7.24 3.582 11.868.148.074.52.13 1.12.168.598.04 1.492.057 2.688.057 1.044-.297 1.864-1.307 2.463-3.023.597-1.716 1.324-3.86 2.183-6.438.856-2.576 1.603-5.17 2.238-7.782.634-2.61 1.026-4.328 1.177-5.15-.6-.297-1.047-.447-1.345-.447h-1.343c-.747.673-1.27 1.345-1.568 2.016-.3.672-.653 1.68-1.063 3.024-.412 1.343-.84 2.613-1.288 3.806-.45 1.195-1.01 2.017-1.68 2.464-.448-.447-.674-.896-.674-1.344 0-.448-.187-1.288-.56-2.52-.374-1.23-1.083-2.537-2.128-3.92-1.045-1.38-1.83-2.183-2.352-2.406-.522-.225-1.157-.336-1.902-.336-1.045.376-1.717.747-2.015 1.122zM688.782 246.516c1.23-2.052 2.8-3.824 4.702-5.317 1.903-1.493 4.03-2.65 6.382-3.473 2.353-.82 4.608-1.23 6.774-1.23 3.508 0 6.175.58 8.005 1.734 1.83 1.16 2.743 3.64 2.743 7.446 0 2.688-.485 5.245-1.455 7.67-.97 2.428-2.314 4.573-4.03 6.438-1.72 1.866-3.75 3.34-6.103 4.422-2.353 1.084-4.91 1.624-7.67 1.624-1.567 0-3.042-.372-4.423-1.12-1.383-.745-2.574-1.696-3.583-2.854-1.01-1.155-1.792-2.48-2.352-3.975-.56-1.49-.84-3.022-.84-4.59.003-2.464.62-4.722 1.85-6.774zm8.118 16.067c3.88 0 6.643-.52 8.284-1.567 1.642-1.045 3.136-2.352 4.48-3.918 1.343-1.567 2.388-3.396 3.135-5.486.744-2.09 1.043-4.18.895-6.27 0-1.492-.224-2.65-.672-3.473-.447-.82-1.27-1.456-2.463-1.904-.375 0-1.12-.036-2.24-.11s-1.866-.112-2.238-.112c-1.94 0-3.958.41-6.047 1.23-2.09.822-3.882 1.83-5.374 3.023-1.493 1.194-2.648 2.763-3.47 4.702-.822 1.94-1.232 4.18-1.232 6.717 1.492 4.03 3.807 6.42 6.942 7.166zm1.065-15.787c1.604-1.64 3.45-2.463 5.542-2.463 1.566 0 2.593.224 3.078.672.484.447.73 1.644.73 3.582 0 2.167-.505 4.03-1.513 5.6-1.008 1.567-2.482 2.612-4.423 3.135-1.645 0-2.987-.26-4.03-.783-1.047-.522-1.756-1.83-2.128-3.92.222-2.24 1.135-4.182 2.743-5.824zm3.525 6.158c1.193-.373 1.903-.876 2.127-1.513.226-.632.336-1.285.336-1.958 0-.225-.038-.54-.11-.95-.075-.41-.448-.653-1.12-.73-1.718 0-2.838 1.12-3.358 3.36.147 1.195.856 1.792 2.125 1.792zM717.838 241.534c0-.82.072-1.718.224-2.688.148-.97.485-1.455 1.008-1.455h7.838c.148 0 .354.15.616.447.26.3.428.522.503.672.074.223.168.614.28 1.174.11.562.225 1.16.336 1.793.112.635.224 1.213.335 1.734.113.524.17 1.384.17 2.576.895-1.642 1.584-2.872 2.07-3.694.483-.82.97-1.586 1.455-2.296.484-.708 1.08-1.323 1.792-1.847.708-.522 1.696-.785 2.967-.785 1.417 0 2.463.15 3.135.448s1.643.82 2.91 1.566c-.446 1.94-1.045 3.806-1.79 5.6-.747 1.79-2.016 4.253-3.807 7.388-1.047 1.792-2.353 4.03-3.92 6.718-1.566 2.688-2.574 4.294-3.022 4.815-.447.522-1.046 1.12-1.79 1.792-.225 0-.768.056-1.624.168-.86.11-1.438.168-1.736.168l-4.48-.336c-.895-4.03-1.493-7.092-1.79-9.182-.3-2.088-.654-4.402-1.064-6.94-.41-2.537-.615-4.665-.615-6.384-.002-.145-.002-.63-.002-1.452zm5.038 19.482c.298 1.047.56 1.68.783 1.903.224.225.67.56 1.344 1.007.147 0 .428-.036.84-.112.41-.072.688-.147.84-.224.596-.148 1.343-1.007 2.24-2.574.894-1.567 2.686-4.627 5.373-9.182 2.688-4.552 4.48-8.098 5.374-10.637-.446-.598-.783-.913-1.007-.95-.225-.038-1.158-.058-2.8-.058-2.238 3.284-3.77 5.616-4.59 6.997-.823 1.38-1.567 2.613-2.24 3.694-.672 1.084-1.455 2.223-2.35 3.415l-1.457-14.106h-5.04l2.69 20.826zM769.342 239.406c0 1.418-.448 2.742-1.346 3.975-.895 1.233-1.978 2-3.245 2.296-1.27.3-2.277.487-3.022.56l-2.24.112-.445 1.232c2.983-.074 4.627.038 4.926.335.297.3.56.636.783 1.01.224.373.372.71.446 1.007.073.3.112.896.112 1.79-.15.897-.412 1.568-.785 2.017-.374.446-.857.895-1.455 1.344-.6.447-1.566.67-2.91.67l-3.136.226-.896 1.23c1.492.075 3.283.188 5.374.337 1.49.6 2.275 1.046 2.352 1.343.073.3.073.672 0 1.12l-.224 1.345c-.075.446-.3 1.194-.672 2.238-.375 1.047-.71 1.72-1.01 2.016h-19.258c-1.493-.374-2.108-1.307-1.848-2.8.262-1.492.616-3.304 1.063-5.43.447-2.13.97-4.368 1.567-6.72.597-2.35 1.25-4.534 1.96-6.55.708-2.016 1.455-3.676 2.238-4.982.784-1.305 1.55-1.96 2.296-1.96l16.906-.11c1.492 0 2.312.635 2.464 1.902v.447h.004zm-21.05 23.4h11.195l.896-2.126c.298-1.045-.447-1.492-2.24-1.344-2.537 0-4.272.02-5.205.057-.935.037-1.438-.28-1.512-.95l.225-1.12c.298-.897.522-1.68.673-2.354.147-.673.52-1.157 1.12-1.456h6.604c1.27-.596 2.016-1.27 2.238-2.016.226-.744-.037-1.492-.783-2.24h-4.927c-.598-.146-1.082-.26-1.455-.334-.375-.074-.522-.373-.447-.896.072-.52.186-1.23.337-2.127.297-.895.744-1.454 1.343-1.68.597-.223 2.612-.335 6.046-.335 1.49-.373 2.5-.84 3.022-1.398.52-.56.633-1.324.336-2.297l-14.332.112c-1.94 2.986-3.358 6.57-4.254 10.75-.896 4.18-1.645 7.464-2.24 9.853-.3 1.12-.075 1.755.672 1.902h2.688zM769.23 257.098c.744-2.464 1.622-4.965 2.63-7.503 1.008-2.536 2.016-4.87 3.023-6.997 1.008-2.128 1.77-3.75 2.295-4.87.52-.598 3.956-.747 10.3-.448 0 1.494-.26 2.91-.783 4.255-.52 1.343-1.082 2.687-1.68 4.03-.6 1.343-1.157 2.705-1.68 4.086-.52 1.384-.935 2.745-1.23 4.087 0 .822.148 1.457.447 1.904.672.15 1.456.226 2.352.226.896 0 1.772.15 2.63.447.858.3 1.587.767 2.187 1.4.597.635.896 1.398.896 2.294 0 .375-.11.878-.335 1.513s-.504 1.25-.84 1.847c-.335.6-.71 1.14-1.12 1.624-.41.487-.802.73-1.175.73H769.23c-.075 0-.243-.3-.504-.897-.263-.598-.468-1.08-.615-1.456v-.56c0-1.343.37-3.246 1.12-5.71zm3.414 5.485c.11.6.465.896 1.062.896h11.196c.15 0 .336-.057.56-.17.226-.11.562-.39 1.01-.84.446-.743.67-1.343.67-1.79s-.224-1.12-.67-2.016l-6.607-.11c-.746-.6-1.23-1.14-1.454-1.624-.224-.485-.3-.988-.224-1.513.073-.298.336-1.138.784-2.52.446-1.38.912-2.816 1.398-4.312.484-1.492 1.063-2.93 1.735-4.31.67-1.382 1.305-2.894 1.903-4.535-.747.075-2.202.075-4.366 0-.896 1.942-1.72 3.733-2.464 5.374-1.27 3.51-2.166 6.064-2.688 7.67-.522 1.605-.952 3.02-1.288 4.255-.336 1.23-.542 2.22-.615 2.966 0 .075-.02.243-.057.505-.04.263-.057.468-.057.615.005.377.06.86.174 1.458z"/></g></svg>